<svg xmlns="http://www.w3.org/2000/svg" viewBox="0 0 56 56" width="56" height="56" fill="none" stroke="#009BA4" stroke-width="3" stroke-linecap="round" stroke-linejoin="round"><rect x="20" y="8" width="16" height="6" rx="1.5"/><path d="M20 14 h16 v3 a4 4 0 0 1 4 4 V44 a4 4 0 0 1-4 4 H20 a4 4 0 0 1-4-4 V21 a4 4 0 0 1 4-4 z"/><path d="M16 23 H40"/><path d="M28 30 l1.4 2.9 3.2.4-2.3 2.2.6 3.2-2.9-1.6-2.9 1.6.6-3.2-2.3-2.2 3.2-.4z" stroke="#E91E63"/><circle cx="28" cy="44" r="1" stroke="#E91E63"/></svg>
