<svg xmlns="http://www.w3.org/2000/svg" viewBox="0 0 56 56" width="56" height="56" fill="none" stroke="#009BA4" stroke-width="3" stroke-linecap="round" stroke-linejoin="round"><rect x="20" y="8" width="16" height="6" rx="1.5"/><path d="M20 14 h16 v3 a4 4 0 0 1 4 4 V44 a4 4 0 0 1-4 4 H20 a4 4 0 0 1-4-4 V21 a4 4 0 0 1 4-4 z"/><path d="M16 23 H40"/><circle cx="28" cy="35" r="1.6" stroke="#E91E63"/><path d="M28 35 l0-4M28 35 l3.8 1.2M28 35 l-3.8 1.2M28 35 l2.4 3.2M28 35 l-2.4 3.2" stroke="#E91E63"/></svg>
