<svg xmlns="http://www.w3.org/2000/svg" width="640" height="360" viewBox="0 0 640 360"><defs><linearGradient id="g" x1="0" x2="1"><stop stop-color="#eafff2"/><stop offset="1" stop-color="#fff"/></linearGradient></defs><rect width="640" height="360" fill="url(#g)"/><rect x="362" y="42" width="158" height="250" rx="28" fill="#fff" stroke="#07c160" stroke-width="10"/><rect x="362" y="42" width="158" height="62" rx="28" fill="#07c160"/><circle cx="395" cy="135" r="12" fill="#07c160"/><rect x="420" y="124" width="70" height="22" rx="11" fill="#dff8e9"/><rect x="390" y="172" width="98" height="34" rx="17" fill="#07c160"/><rect x="390" y="225" width="44" height="44" rx="12" fill="#e8fff0"/><rect x="448" y="225" width="44" height="44" rx="12" fill="#e8fff0"/><path d="M85 170c52-85 140-83 192-34 45 42 29 108-28 135-65 31-171-4-181-67-2-12 3-24 17-34z" fill="#07c160" opacity=".12"/></svg>
